<?xml version="1.0" encoding="UTF-8"?>
<svg id="katman_1" data-name="katman 1" xmlns="http://www.w3.org/2000/svg" viewBox="0 0 170.09 38.79">
  <defs>
    <style>
      .cls-1 {
        fill: #131e32;
      }

      .cls-2 {
        fill: #e52e22;
      }
    </style>
  </defs>
  <path class="cls-2" d="M4.16,28.7c-1.39-.4-2.5-.91-3.34-1.53l1.81-3.42c.88.64,1.86,1.13,2.95,1.48,1.09.35,2.22.52,3.36.52,1.22,0,2.19-.2,2.9-.6.71-.4,1.07-.95,1.07-1.64,0-.56-.28-1-.85-1.3-.57-.3-1.47-.62-2.71-.97-1.24-.36-2.25-.72-3.04-1.05-.78-.34-1.46-.84-2.04-1.52-.57-.67-.86-1.57-.86-2.68,0-1.29.36-2.43,1.08-3.42.72-.98,1.74-1.74,3.06-2.27,1.32-.53,2.86-.79,4.61-.79,1.29,0,2.52.14,3.67.42,1.15.28,2.13.69,2.95,1.22l-1.67,3.39c-.71-.49-1.51-.86-2.41-1.11-.89-.25-1.82-.37-2.79-.37-1.26,0-2.25.22-2.98.66-.73.44-1.09,1-1.09,1.7,0,.42.15.77.47,1.05.31.28.7.51,1.18.68.47.17,1.14.38,2,.62,1.22.33,2.22.66,3.01,1,.78.34,1.45.83,2.01,1.48.56.65.83,1.5.83,2.56,0,1.31-.36,2.46-1.09,3.43-.73.98-1.76,1.73-3.09,2.27-1.33.54-2.88.81-4.65.81-1.51,0-2.96-.2-4.35-.6Z"/>
  <path class="cls-2" d="M20.78,15.19h4.24l-2.81,14.11h-4.24l2.81-14.11ZM22.03,13.21c-.37-.35-.55-.8-.55-1.33,0-.7.22-1.28.65-1.72.44-.44.98-.67,1.63-.67.59,0,1.06.18,1.42.53.36.35.54.8.54,1.36,0,.69-.22,1.25-.65,1.7-.44.44-.97.67-1.61.67-.59,0-1.06-.18-1.43-.53Z"/>
  <path class="cls-2" d="M26.95,28.88c-1.14-.28-2.03-.65-2.67-1.11l1.64-3.09c.64.42,1.42.76,2.34,1.01.92.26,1.85.38,2.78.38s1.69-.12,2.16-.37c.47-.25.71-.6.71-1.05,0-.36-.21-.63-.63-.79-.42-.16-1.09-.34-2.02-.52-1.06-.2-1.93-.42-2.61-.66-.68-.24-1.28-.62-1.78-1.16-.5-.54-.75-1.27-.75-2.2,0-1.62.68-2.89,2.04-3.8,1.36-.91,3.14-1.37,5.35-1.37,1.02,0,2.01.11,2.98.33.97.22,1.79.52,2.46.9l-1.53,3.12c-1.2-.75-2.65-1.12-4.35-1.12-.93,0-1.64.14-2.12.41-.48.27-.72.62-.72,1.04,0,.38.21.66.63.83.42.17,1.12.36,2.11.56,1.04.2,1.89.41,2.56.64.67.23,1.24.61,1.74,1.14.49.53.74,1.25.74,2.16,0,1.64-.69,2.91-2.07,3.8-1.38.89-3.16,1.34-5.35,1.34-1.28,0-2.48-.14-3.62-.42Z"/>
  <path class="cls-1" d="M46.38,13.11h-6.13l.74-3.61h16.69l-.74,3.61h-6.1l-3.25,16.2h-4.43s3.22-16.2,3.22-16.2Z"/>
  <path class="cls-1" d="M70.67,22.87h-11.27c.15,2.01,1.41,3.01,3.8,3.01.75,0,1.46-.12,2.15-.36.68-.24,1.28-.57,1.79-1.01l1.78,2.82c-.82.66-1.76,1.15-2.82,1.48-1.06.33-2.17.49-3.34.49-1.51,0-2.84-.27-3.98-.81-1.14-.54-2.02-1.31-2.63-2.31-.61-1-.92-2.16-.92-3.47,0-1.62.37-3.09,1.11-4.39.74-1.3,1.76-2.33,3.08-3.06,1.31-.74,2.81-1.11,4.49-1.11,1.42,0,2.66.26,3.71.79,1.05.53,1.86,1.29,2.43,2.27.57.98.86,2.12.86,3.42,0,.67-.08,1.42-.25,2.24ZM61.18,18.16c-.69.54-1.19,1.28-1.48,2.23h7.3c0-.95-.3-1.69-.89-2.23-.59-.54-1.39-.81-2.39-.81s-1.85.27-2.54.81Z"/>
  <path class="cls-1" d="M82.12,20.99l5.06,8.32h-4.95l-3.5-5.72-2.6,2.16-.71,3.56h-4.27l3.95-19.81h4.27l-2.17,10.87,7.06-5.77h5.55l-7.69,6.4Z"/>
  <path class="cls-1" d="M104.35,15.67c.97.87,1.45,2.1,1.45,3.71,0,.6-.06,1.19-.19,1.78l-1.64,8.15h-4.27l1.59-7.88c.07-.31.11-.65.11-1.01,0-.77-.21-1.35-.63-1.75-.42-.4-1.05-.6-1.89-.6-1.09,0-2,.31-2.72.94-.72.63-1.21,1.57-1.46,2.83l-1.48,7.47h-4.27l2.93-14.72h4.05l-.33,1.59c1.31-1.2,2.93-1.81,4.84-1.81,1.64,0,2.94.43,3.91,1.3Z"/>
  <path class="cls-1" d="M110.77,28.48c-1.12-.55-1.99-1.32-2.6-2.31-.61-.99-.92-2.15-.92-3.46,0-1.62.38-3.08,1.15-4.38.77-1.29,1.82-2.32,3.17-3.06,1.35-.75,2.87-1.12,4.57-1.12,1.5,0,2.8.27,3.91.82,1.11.55,1.97,1.32,2.59,2.31.61.99.92,2.15.92,3.46,0,1.62-.38,3.08-1.14,4.38-.76,1.3-1.81,2.32-3.17,3.06-1.36.75-2.89,1.12-4.58,1.12-1.48,0-2.78-.27-3.9-.82ZM117.15,25.16c.66-.41,1.17-.98,1.53-1.71.36-.73.55-1.57.55-2.52,0-1-.29-1.8-.88-2.38-.58-.58-1.4-.88-2.46-.88-.84,0-1.59.21-2.24.62-.66.41-1.17.98-1.53,1.71-.37.73-.55,1.57-.55,2.52,0,1,.3,1.8.89,2.38.59.58,1.42.88,2.48.88.82,0,1.56-.21,2.22-.62Z"/>
  <g>
    <path class="cls-2" d="M164.28,12.51c-.24,1.26-.99,2.24-1.91,3.15.54.98.75,2.01.58,3.12.85.52,1.71,1.05,2.59,1.58.07-.1.14-.2.21-.3.45-.64,1.22-.84,1.91-.44.27.16.54.36.74.59.76.92,1.02,1.97.77,3.12-.06.25-.17.5-.31.72-.51.79-1.42.82-2.04.45-.69-.42-1.06-1.05-1.3-1.76-.11-.34-.2-.7-.18-1.06,0-.15-.02-.26-.17-.34-.85-.5-1.7-1.02-2.58-1.55-.49.83-1.17,1.41-2.16,1.67,0,.17,0,.34,0,.51-.03.76-.03,1.52-.1,2.27-.08.87-.26,1.72-.57,2.54-.09.24-.08.45-.03.68.33,1.33.05,2.55-.82,3.62-.67.82-1.57,1.27-2.66,1.29-.86,0-1.63-.3-2.27-.86-.48-.42-.82-.93-1.05-1.51-.06-.15-.12-.26-.28-.34-1.34-.66-2.44-1.6-3.47-2.64-.24-.24-.47-.49-.72-.75-1.17.68-2.4.87-3.75.53-.48,1.18-.96,2.35-1.43,3.5.21.24.43.46.61.7.81,1.13.86,2.77-.1,3.9-.8.94-2.21,1.21-3.31.59-1.06-.59-1.55-1.51-1.65-2.64-.03-.37.02-.74.12-1.11.36-1.29,1.58-2.22,3.17-1.98.48-1.15.96-2.31,1.45-3.49-1.1-.75-1.72-1.77-2.01-3.03-.15,0-.28-.01-.42-.01-.95,0-1.9-.08-2.82-.31-.5-.13-.99-.3-1.52-.47-.19.08-.43.18-.68.26-1.53.52-2.68-.37-3.08-1.42-.33-.88-.29-1.76.03-2.63.37-.99.99-1.8,1.99-2.3.12-.06.23-.17.29-.28.66-1.23,1.54-2.3,2.55-3.28.06-.06.13-.13.19-.19,0,0,.01-.02.03-.05-.44-.85-.37-1.71.03-2.6-.73-.2-1.45-.3-2.18-.44-.13.12-.26.24-.39.36-.45.39-.95.7-1.54.84-.15.03-.31.05-.46.05-.5,0-.87-.28-.8-.91.02-.16.06-.32.13-.47.5-1.01,1.27-1.75,2.41-2.1.26-.08.52-.14.8-.05.35.12.52.29.54.65,0,.14,0,.27-.02.41-.02.12-.07.24-.12.4.72.13,1.43.26,2.17.39.74-.81,1.65-1.4,2.75-1.69.16-.48.28-.95.48-1.39.19-.45.45-.86.69-1.32-.04-.16-.14-.37-.14-.57,0-.25.12-.47.3-.67.44-.48,1-.76,1.61-.95.6-.18,1.22-.28,1.85-.24.43.02.85.11,1.24.31.11.06.23.12.32.21.14.15.3.21.5.25,1.05.2,2,.62,2.91,1.15.18.1.32.14.54.1.73-.16,1.47-.13,2.21.04.1.02.2.05.33.08.26-.39.51-.78.77-1.18-.23-.14-.46-.24-.65-.38-.18-.14-.34-.31-.46-.5-.14-.23-.05-.44.21-.55.18-.07.37-.12.57-.13.98-.03,1.88.23,2.69.76.17.11.32.26.43.42.2.28.1.54-.23.66-.16.06-.33.09-.49.09-.38,0-.75-.03-1.18-.05-.22.36-.45.75-.7,1.16.09.07.16.12.23.17.6.35,1.11.79,1.46,1.37.1.16.22.22.4.25,1.23.2,2.4.55,3.52,1.07.14.07.28.1.44.09.45-.02.88.07,1.29.26,1.04.48,1.85,1.2,2.36,2.19.19.36.29.74.28,1.15-.01.55-.24.96-.79,1.17-.05.02-.09.05-.15.08ZM150.47,20.41c1.64-.51,3.24-1.08,4.79-1.77-.05-.13-.09-.24-.13-.34-.27-.72-.4-1.46-.27-2.23.23-1.3.9-2.26,2.22-2.75.08-.03.17-.06.27-.1-.59-1.34-1.24-2.64-2.07-3.83-2.18.37-4.01-.12-5.4-1.8-.79.03-3.86,1.02-4.32,1.4.13.41.2.84.12,1.28-.2,1.09-.81,1.93-1.69,2.6-.29.22-.62.4-.92.6.15.92,1.25,3.88,1.6,4.31,2.42-.78,4.82.3,5.81,2.65ZM155.94,19.74c-1.71.75-3.43,1.42-5.23,1.94.1,1.42-.33,2.65-1.23,3.74.95,1.03,1.94,1.96,3.15,2.71.02-.06.04-.09.04-.13.1-.77.38-1.47.87-2.08.68-.85,1.59-1.31,2.71-1.33.78-.01,1.48.27,2.09.72.16.12.31.25.49.4.44-1.37.44-2.74.48-4.14-1.41-.18-2.51-.81-3.37-1.83ZM141.89,13.83c-.11.02-.19.03-.26.04-1.02.17-1.97.05-2.83-.54-.03-.02-.07-.02-.1-.04-.64.44-2.03,2.15-2.21,2.72.06.01.12.03.18.04.5.06.92.26,1.27.6.64.6.85,1.36.85,2.17,0,.75-.19,1.48-.6,2.13-.1.17-.21.33-.31.5.76.36,2.77.61,3.6.45.1-.67.28-1.33.61-1.94.34-.62.82-1.14,1.38-1.6-.64-1.49-1.16-2.98-1.59-4.54ZM156.18,8.99c.22.35.43.65.6.97.52.96,1.03,1.92,1.52,2.89.1.2.22.29.46.31.82.1,1.55.41,2.19.9.24.19.47.39.73.6.67-.62,1.21-1.31,1.54-2.17-.13-.05-.23-.08-.33-.11-1.32-.46-2.26-1.31-2.8-2.54-.26-.6-.29-1.21.12-1.78.01-.01,0-.04,0-.09-.95-.39-1.94-.64-2.99-.8,0,.8-.4,1.35-1.04,1.8ZM148.09,3.6c-.23.6-.69.98-1.26,1.24-.6.28-1.25.43-1.92.47-.55.03-1.09-.02-1.6-.18-.39.51-.78,1.57-.76,2.11.97-.02,1.84.25,2.51.91.77-.26,1.5-.53,2.24-.76.74-.23,1.49-.42,2.23-.62,0-.09,0-.15,0-.21-.05-.73.25-1.3.87-1.73.06-.04.11-.1.16-.15-.5-.41-1.83-.99-2.48-1.07Z"/>
    <path class="cls-2" d="M153.55,35.51c.03.87-.3,1.51-.94,2-1.18.89-2.8.53-3.49-.74-.59-1.09-.22-2.4.69-3.06.73-.53,1.54-.67,2.39-.29.85.38,1.29,1.05,1.35,1.95,0,.07,0,.15,0,.14Z"/>
    <path class="cls-2" d="M165.52,30.01c.02.71-.21,1.31-.66,1.82-.21.24-.47.42-.79.52-.58.19-1.1.07-1.56-.31-.4-.33-.63-.76-.72-1.25-.15-.86-.04-1.68.6-2.37.25-.26.53-.47.89-.58.71-.2,1.43.1,1.85.78.27.44.42.91.39,1.38Z"/>
    <path class="cls-2" d="M135.85,27.33c-.03.53-.17,1.12-.59,1.61-.43.51-.98.78-1.68.61-.52-.12-.87-.46-1.09-.9-.5-1.04-.45-2.06.26-3,.32-.42.76-.67,1.33-.66.44,0,.78.17,1.07.47.48.5.7,1.07.7,1.86Z"/>
    <path class="cls-2" d="M132.9,15.11c-.06.97-.45,1.73-1.2,2.31-.19.14-.43.24-.66.31-.45.13-.83-.06-1.02-.46-.12-.26-.16-.53-.11-.8.14-.88.55-1.62,1.34-2.14.14-.09.3-.15.46-.2.51-.16.94.05,1.11.54.06.16.07.34.09.46Z"/>
    <path class="cls-2" d="M169.21,15.47c-.02.11-.02.25-.06.38-.13.44-.49.62-.94.46-.19-.07-.39-.16-.54-.28-.75-.6-1.22-1.35-1.22-2.31,0-.16.05-.32.11-.46.14-.3.44-.41.78-.33.29.07.53.21.74.4.65.58,1.08,1.26,1.13,2.16Z"/>
    <path class="cls-2" d="M163.79,6.57c0,.31-.07.44-.29.47-.23.02-.47.02-.69-.04-.74-.23-1.34-.66-1.8-1.25-.1-.12-.17-.29-.2-.44-.06-.28.08-.43.37-.45.18,0,.37,0,.54.05.76.22,1.37.66,1.85,1.25.11.14.17.33.21.42Z"/>
    <path class="cls-2" d="M138.65,4.94c-.1-.03-.22-.04-.33-.08-.25-.09-.32-.27-.23-.51.09-.24.27-.42.48-.57.55-.39,1.16-.67,1.85-.73.14-.01.29,0,.42.04.34.08.45.28.31.58-.03.07-.07.13-.12.19-.63.68-1.45.98-2.38,1.09Z"/>
    <path class="cls-2" d="M149.17.8c.37-.01.77,0,1.15.16.19.08.42.16.43.39.01.26-.24.34-.44.4-.77.25-1.56.26-2.33.02-.2-.06-.43-.15-.44-.37-.02-.25.22-.34.42-.43.38-.17.78-.18,1.22-.17Z"/>
    <path class="cls-2" d="M152.92,13.29c0,1.07-.75,1.99-1.84,2.31-1.22.36-2.3.06-3.17-.83-1.01-1.04-.82-2.66.39-3.51,1.54-1.09,3.73-.47,4.42,1.09.13.3.19.57.19.94Z"/>
  </g>
</svg>